<svg width="15" height="15" viewBox="0 0 15 15" fill="none" xmlns="http://www.w3.org/2000/svg">
<path d="M13.1177 2.4346H11.224V1.05782C11.224 0.792422 11.0042 0.576782 10.7336 0.576782C10.4631 0.576782 10.2433 0.792422 10.2433 1.05782V2.4346H5.67808V1.05782C5.67808 0.792422 5.45828 0.576782 5.18775 0.576782C4.91721 0.576782 4.69741 0.792422 4.69741 1.05782V2.4346H2.80369C1.7892 2.4346 0.960693 3.2474 0.960693 4.24266V12.7687C0.960693 13.764 1.7892 14.5768 2.80369 14.5768H13.1177C14.1322 14.5768 14.9607 13.764 14.9607 12.7687V4.24266C14.9607 3.2474 14.1322 2.4346 13.1177 2.4346ZM2.80369 3.39669H4.69741V4.06019C4.69741 4.3256 4.91721 4.54124 5.18775 4.54124C5.45828 4.54124 5.67808 4.3256 5.67808 4.06019V3.39669H10.2264V4.06019C10.2264 4.3256 10.4462 4.54124 10.7167 4.54124C10.9873 4.54124 11.2071 4.3256 11.2071 4.06019V3.39669H13.1008C13.5742 3.39669 13.9631 3.7782 13.9631 4.24266V5.85166H1.94137V4.24266C1.94137 3.7782 2.33026 3.39669 2.80369 3.39669ZM13.1177 13.6147H2.80369C2.33026 13.6147 1.94137 13.2332 1.94137 12.7687V6.83034H13.98V12.7687C13.98 13.2332 13.5911 13.6147 13.1177 13.6147Z" fill="#556E9A"/>
</svg>
