<svg width="18" height="18" viewBox="0 0 18 18" fill="none" xmlns="http://www.w3.org/2000/svg">
<path d="M17.5363 16.7893L17.5893 16.8423L17.5363 16.8954L16.5939 17.8377L16.5409 17.8908L16.4879 17.8377L11.8631 13.213C10.6476 14.1985 9.09972 14.7897 7.41646 14.7897C3.51699 14.7897 0.344639 11.6174 0.344639 7.71789C0.344639 3.81842 3.51696 0.646069 7.41646 0.646069C11.3159 0.646069 14.4883 3.81842 14.4883 7.71789C14.4883 9.40115 13.8971 10.949 12.9115 12.1645L17.5363 16.7893ZM7.41646 13.307C10.4982 13.307 13.0056 10.7997 13.0056 7.71789C13.0056 4.63614 10.4982 2.1288 7.41646 2.1288C4.33471 2.1288 1.82737 4.63614 1.82737 7.71789C1.82737 10.7997 4.33471 13.307 7.41646 13.307Z" fill="#6F8BBC" stroke="#6F8BBC" stroke-width="0.15"/>
</svg>
